{"title":"Tenderness.2009.480p.BRRip.XviD.AC3-Voltage","uid":5329976,"size":1818316800,"categoryP":"video","categoryS":"movies","magnet":"?xt=urn:btih:580b9dc94eb58ee4b0a2f4f842bb86b196012e64&amp;dn=Tenderness.2009.480p.BRRip.XviD.AC3-Voltage&amp;tr=udp%3A%2F%2Ftracker.openbittorrent.com%3A80&amp;tr=udp%3A%2F%2Fopen.demonii.com%3A1337&amp;tr=udp%3A%2F%2Ftracker.coppersurfer.tk%3A6969&amp;tr=udp%3A%2F%2Fexodus.desync.com%3A6969","seeders":0,"leechers":1,"uploader":".BONE.","files":1,"time":1265137902,"description":"Format : MPEG-4 Visual\nFormat profile : Advanced Simple@L5\nFormat settings, BVOP : Yes\nFormat settings, QPel : No\nFormat settings, GMC : No warppoints\nFormat settings, Matrix : Default (H.263)\nCodec ID : XVID\nCodec ID/Hint : XviD\nDuration : 1h 40mn\nBit rate : 1 945 Kbps\nWidth : 720 pixels\nHeight : 304 pixels\nDisplay aspect ratio : 2.35:1\nFrame rate : 23.976 fps\nResolution : 8 bits\nColorimetry : 4:2:0\nScan type : Progressive\nBits/(Pixel*Frame) : 0.371\nStream size : 1.37 GiB (81%)\nWriting library : XviD 1.2.1 (UTC 2008-12-04)\n\n-Audio-\nFormat : AC-3\nFormat/Info : Audio Coding 3\nCodec ID : 2000\nDuration : 1h 40mn\nBit rate mode : Constant\nBit rate : 448 Kbps\nChannel(s) : 6 channels\nChannel positions : Front: L C R, Surround: L R, LFE\nSampling rate : 48.0 KHz\nStream size : 323 MiB (19%)\nAlignment : Split accross interleaves\nInterleave, duration : 42 ms (1.00 video frame)\nInterleave, preload duration : 500 ms","torrent":{"xt":"urn:btih:580b9dc94eb58ee4b0a2f4f842bb86b196012e64","amp;dn":"Tenderness.2009.480p.BRRip.XviD.AC3-Voltage","amp;tr":["udp%3A%2F%2Ftracker.openbittorrent.com%3A80","udp%3A%2F%2Fopen.demonii.com%3A1337","udp%3A%2F%2Ftracker.coppersurfer.tk%3A6969","udp%3A%2F%2Fexodus.desync.com%3A6969"],"infoHash":"580b9dc94eb58ee4b0a2f4f842bb86b196012e64","infoHashBuffer":{"type":"Buffer","data":[88,11,157,201,78,181,142,228,176,162,244,248,66,187,134,177,150,1,46,100]},"announce":[],"urlList":[]}}